<svg width="48" height="48" viewBox="0 0 48 48" fill="none" xmlns="http://www.w3.org/2000/svg">
<path d="M24 28C27.32 28 29.98 25.32 29.98 22L30 10C30 6.68 27.32 4 24 4C20.68 4 18 6.68 18 10V22C18 25.32 20.68 28 24 28ZM21.6 9.8C21.6 8.48 22.68 7.4 24 7.4C25.32 7.4 26.4 8.48 26.4 9.8L26.38 22.2C26.38 23.52 25.32 24.6 24 24.6C22.68 24.6 21.6 23.52 21.6 22.2V9.8ZM34.6 22C34.6 28 29.52 32.2 24 32.2C18.48 32.2 13.4 28 13.4 22H10C10 28.82 15.44 34.46 22 35.44V42H26V35.44C32.56 34.48 38 28.84 38 22H34.6Z" fill="white"/>
</svg>
