<svg width="48" height="48" viewBox="0 0 48 48" fill="none" xmlns="http://www.w3.org/2000/svg">
<path d="M36.8333 22H33.7167C33.7167 23.48 33.4233 24.86 32.9283 26.1L35.1833 28.56C36.21 26.6 36.8333 24.38 36.8333 22V22ZM29.4633 22.34C29.4633 22.22 29.5 22.12 29.5 22V10C29.5 6.68 27.0433 4 24 4C20.9567 4 18.5 6.68 18.5 10V10.36L29.4633 22.34ZM9.82833 6L7.5 8.54L18.5183 20.56V22C18.5183 25.32 20.9567 28 24 28C24.4033 28 24.8067 27.94 25.1917 27.84L28.235 31.16C26.9333 31.82 25.485 32.2 24 32.2C18.94 32.2 14.2833 28 14.2833 22H11.1667C11.1667 28.82 16.1533 34.46 22.1667 35.44V42H25.8333V35.44C27.5017 35.18 29.0783 34.54 30.49 33.64L38.1717 42L40.5 39.46L9.82833 6Z" fill="white"/>
</svg>
