<svg width="48" height="48" viewBox="0 0 48 48" fill="none" xmlns="http://www.w3.org/2000/svg">
<path d="M19.8333 11.8125V7.875C19.8333 7.25625 19.3083 6.75 18.6667 6.75H4.66667C4.025 6.75 3.5 7.25625 3.5 7.875V19.125C3.5 19.7437 4.025 20.25 4.66667 20.25H18.6667C19.3083 20.25 19.8333 19.7437 19.8333 19.125V15.1875L24.5 19.6875V7.3125L19.8333 11.8125Z" fill="white" fill-opacity="0.9"/>
<path d="M45 27H27C25.89 27 25 27.89 25 29V41C25 42.1 25.89 43 27 43H32V45H40V43H45C46.1 43 46.99 42.1 46.99 41L47 29C47 27.89 46.1 27 45 27ZM45 41H27V29H45V41Z" fill="white" fill-opacity="0.9"/>
<path d="M5.5 43.5L45 4" stroke="white" stroke-width="3"/>
</svg>
